<svg version="1.1" id="bitonics_widget_logo" style="fill: #000" xmlns="http://www.w3.org/2000/svg" xmlns:xlink="http://www.w3.org/1999/xlink" x="0px" y="0px"
	 viewBox="0 0 256 64" style="enable-background:new 0 0 256 64;" xml:space="preserve">
<path d="M28.1,31.2c3.2-1.6,4.9-4.3,4.9-7.6c0-5.3-4.5-9.2-14.2-9.2H0v35.2h19.8c9.7,0,14.9-3.6,14.9-9.7
	C34.7,35.7,32.2,32.7,28.1,31.2z M11.6,22.7h5.5c2.7,0,3.9,0.9,3.9,2.6c0,1.7-1.2,2.6-3.9,2.6h-5.5V22.7z M18.8,41.3h-7.1v-5.5h7.1
	c2.6,0,3.9,0.9,3.9,2.8C22.7,40.3,21.4,41.3,18.8,41.3z"/>
<rect x="38.8" y="14.4" width="11.9" height="35.2"/>
<polygon points="53.8,23.6 64.1,23.6 64.1,49.6 75.9,49.6 75.9,23.6 86.2,23.6 86.2,14.4 53.8,14.4 "/>
<path d="M107.6,13.8c-11.1,0-19.2,7.7-19.2,18.2s8.1,18.2,19.2,18.2c11,0,19.2-7.7,19.2-18.2C126.9,21.5,118.7,13.8,107.6,13.8z
	 M107.6,43.2c-6.3,0-11-4.6-11-11.2s4.7-11.2,11-11.2s11,4.6,11,11.2C118.6,38.7,113.9,43.2,107.6,43.2z"/>
<polygon points="154.8,30.4 141.4,14.4 131.7,14.4 131.7,49.6 143.2,49.6 143.2,33.6 156.6,49.6 166.3,49.6 166.3,14.4 154.8,14.4 
	"/>
<rect x="172.1" y="14.4" width="11.9" height="35.2"/>
<path d="M208.4,23.2c3.2,0,5.6,1.5,7.7,4.1l7.5-6.7c-3.5-4.5-8.9-7-15.8-7c-11.3,0-19.6,7.6-19.6,18.4s8.3,18.4,19.6,18.4
	c6.9,0,12.3-2.5,15.8-7l-7.5-6.7c-2.1,2.6-4.5,4.1-7.7,4.1c-4.9,0-8.2-3.4-8.2-8.8C200.2,26.6,203.5,23.2,208.4,23.2z"/>
<path d="M236.6,24.9c0-1.2,1.1-2.2,4.6-2.2c3.1,0,6.3,0.8,9.8,2.6l3.6-8.6c-3.7-2.1-8.5-3.1-13.3-3.1c-10.9,0-16.4,5.3-16.4,11.9
	c0,13.1,19.4,9.5,19.4,14c0,1.2-1.2,1.9-4.6,1.9c-3.9,0-8.3-1.2-11.6-3.2l-3.8,8.6c3.5,2.2,9.4,3.6,15.3,3.6
	c10.9,0,16.4-5.4,16.4-11.9C256,25.6,236.6,29.1,236.6,24.9z"/>
</svg>
